<?xml version="1.0" encoding="UTF-8"?>
<svg width="350px" height="323px" viewBox="0 0 350 323" version="1.1" xmlns="http://www.w3.org/2000/svg" xmlns:xlink="http://www.w3.org/1999/xlink">
    <!-- Generator: Sketch 46.2 (44496) - http://www.bohemiancoding.com/sketch -->
    <title>Graph_2</title>
    <desc>Created with Sketch.</desc>
    <defs></defs>
    <g id="Mobile-Scratch-3" stroke="none" stroke-width="1" fill="none" fill-rule="evenodd">
        <g id="Desktop-HD-Copy-8" transform="translate(-1043.000000, -643.000000)">
            <g id="Graph_2" transform="translate(1043.000000, 643.000000)">
                <path d="M36.4609375,36.6015625 C35.2057229,36.6015625 34.2148474,37.0195271 33.4882812,37.8554688 C32.7617151,38.6914104 32.3984375,39.8359302 32.3984375,41.2890625 C32.3984375,42.7838616 32.7486944,43.938798 33.4492188,44.7539062 C34.1497431,45.5690145 35.148431,45.9765625 36.4453125,45.9765625 C37.2421915,45.9765625 38.1510366,45.8333348 39.171875,45.546875 L39.171875,46.7109375 C38.3802044,47.007814 37.4036516,47.15625 36.2421875,47.15625 C34.5598874,47.15625 33.2617233,46.6458384 32.3476562,45.625 C31.4335892,44.6041616 30.9765625,43.1536552 30.9765625,41.2734375 C30.9765625,40.0963483 31.1966124,39.0651086 31.6367188,38.1796875 C32.0768251,37.2942664 32.7122354,36.6119816 33.5429688,36.1328125 C34.3737021,35.6536434 35.3515569,35.4140625 36.4765625,35.4140625 C37.6744852,35.4140625 38.7213497,35.6328103 39.6171875,36.0703125 L39.0546875,37.2109375 C38.1900998,36.8046855 37.3255252,36.6015625 36.4609375,36.6015625 Z M42.765625,47 L41.46875,47 L41.46875,34.84375 L42.765625,34.84375 L42.765625,47 Z M50.78125,47 L50.5234375,45.78125 L50.4609375,45.78125 C50.033852,46.317711 49.608075,46.6809886 49.1835938,46.8710938 C48.7591125,47.0611989 48.2291698,47.15625 47.59375,47.15625 C46.7447874,47.15625 46.0794295,46.9375022 45.5976562,46.5 C45.115883,46.0624978 44.875,45.4401082 44.875,44.6328125 C44.875,42.9036372 46.2577987,41.9973963 49.0234375,41.9140625 L50.4765625,41.8671875 L50.4765625,41.3359375 C50.4765625,40.6640591 50.3320327,40.1679704 50.0429688,39.8476562 C49.7539048,39.5273421 49.2916698,39.3671875 48.65625,39.3671875 C47.9427048,39.3671875 47.1354212,39.5859353 46.234375,40.0234375 L45.8359375,39.03125 C46.2578146,38.8020822 46.7200496,38.6223965 47.2226562,38.4921875 C47.7252629,38.3619785 48.2291641,38.296875 48.734375,38.296875 C49.7552134,38.296875 50.5117163,38.5234352 51.0039062,38.9765625 C51.4960962,39.4296898 51.7421875,40.156245 51.7421875,41.15625 L51.7421875,47 L50.78125,47 Z M47.8515625,46.0859375 C48.6588582,46.0859375 49.2929664,45.8645855 49.7539062,45.421875 C50.2148461,44.9791645 50.4453125,44.359379 50.4453125,43.5625 L50.4453125,42.7890625 L49.1484375,42.84375 C48.1171823,42.8802085 47.3737002,43.0403632 46.9179688,43.3242188 C46.4622373,43.6080743 46.234375,44.0494762 46.234375,44.6484375 C46.234375,45.1171898 46.3763007,45.4739571 46.6601562,45.71875 C46.9440118,45.9635429 47.3411433,46.0859375 47.8515625,46.0859375 Z M55.7109375,47 L54.4140625,47 L54.4140625,38.4375 L55.7109375,38.4375 L55.7109375,47 Z M54.3046875,36.1171875 C54.3046875,35.820311 54.3776034,35.6028653 54.5234375,35.4648438 C54.6692716,35.3268222 54.8515614,35.2578125 55.0703125,35.2578125 C55.2786469,35.2578125 55.4583326,35.3281243 55.609375,35.46875 C55.7604174,35.6093757 55.8359375,35.8255194 55.8359375,36.1171875 C55.8359375,36.4088556 55.7604174,36.6263014 55.609375,36.7695312 C55.4583326,36.9127611 55.2786469,36.984375 55.0703125,36.984375 C54.8515614,36.984375 54.6692716,36.9127611 54.5234375,36.7695312 C54.3776034,36.6263014 54.3046875,36.4088556 54.3046875,36.1171875 Z M69.375,47 L69.375,41.4296875 C69.375,40.7473924 69.2291681,40.2356788 68.9375,39.8945312 C68.6458319,39.5533837 68.1927114,39.3828125 67.578125,39.3828125 C66.7708293,39.3828125 66.1744811,39.614581 65.7890625,40.078125 C65.4036439,40.541669 65.2109375,41.2552035 65.2109375,42.21875 L65.2109375,47 L63.9140625,47 L63.9140625,41.4296875 C63.9140625,40.7473924 63.7682306,40.2356788 63.4765625,39.8945312 C63.1848944,39.5533837 62.7291698,39.3828125 62.109375,39.3828125 C61.2968709,39.3828125 60.7018248,39.6262996 60.3242188,40.1132812 C59.9466127,40.6002629 59.7578125,41.398432 59.7578125,42.5078125 L59.7578125,47 L58.4609375,47 L58.4609375,38.4375 L59.515625,38.4375 L59.7265625,39.609375 L59.7890625,39.609375 C60.0338554,39.1927063 60.378904,38.8671887 60.8242188,38.6328125 C61.2695335,38.3984363 61.7682264,38.28125 62.3203125,38.28125 C63.6588609,38.28125 64.5338521,38.7656202 64.9453125,39.734375 L65.0078125,39.734375 C65.2630221,39.2864561 65.6328101,38.932293 66.1171875,38.671875 C66.6015649,38.411457 67.1536427,38.28125 67.7734375,38.28125 C68.7421923,38.28125 69.4674455,38.5299454 69.9492188,39.0273438 C70.430992,39.5247421 70.671875,40.320307 70.671875,41.4140625 L70.671875,47 L69.375,47 Z M77.6953125,35.578125 L80.921875,35.578125 C82.4375076,35.578125 83.5338508,35.8046852 84.2109375,36.2578125 C84.8880242,36.7109398 85.2265625,37.4270784 85.2265625,38.40625 C85.2265625,39.0833367 85.0377623,39.6419249 84.6601562,40.0820312 C84.2825502,40.5221376 83.7317745,40.807291 83.0078125,40.9375 L83.0078125,41.015625 C84.7421962,41.3125015 85.609375,42.2239507 85.609375,43.75 C85.609375,44.7708384 85.2643264,45.5677055 84.5742188,46.140625 C83.8841111,46.7135445 82.919277,47 81.6796875,47 L77.6953125,47 L77.6953125,35.578125 Z M79.0234375,40.46875 L81.2109375,40.46875 C82.1484422,40.46875 82.8229146,40.3216161 83.234375,40.0273438 C83.6458354,39.7330714 83.8515625,39.2369827 83.8515625,38.5390625 C83.8515625,37.8984343 83.6223981,37.4361993 83.1640625,37.1523438 C82.7057269,36.8684882 81.9765675,36.7265625 80.9765625,36.7265625 L79.0234375,36.7265625 L79.0234375,40.46875 Z M79.0234375,41.59375 L79.0234375,45.8671875 L81.40625,45.8671875 C82.3281296,45.8671875 83.0221331,45.6888039 83.4882812,45.3320312 C83.9544294,44.9752586 84.1875,44.4166705 84.1875,43.65625 C84.1875,42.9479131 83.9492211,42.427085 83.4726562,42.09375 C82.9960914,41.760415 82.2708382,41.59375 81.296875,41.59375 L79.0234375,41.59375 Z M91.7734375,38.28125 C92.1536477,38.28125 92.4947902,38.3124997 92.796875,38.375 L92.6171875,39.578125 C92.2630191,39.4999996 91.9505222,39.4609375 91.6796875,39.4609375 C90.9869757,39.4609375 90.3945337,39.7421847 89.9023438,40.3046875 C89.4101538,40.8671903 89.1640625,41.5677041 89.1640625,42.40625 L89.1640625,47 L87.8671875,47 L87.8671875,38.4375 L88.9375,38.4375 L89.0859375,40.0234375 L89.1484375,40.0234375 C89.4661474,39.466143 89.8489561,39.0364598 90.296875,38.734375 C90.7447939,38.4322902 91.2369765,38.28125 91.7734375,38.28125 Z M98.015625,47.15625 C96.7499937,47.15625 95.7513057,46.7708372 95.0195312,46 C94.2877568,45.2291628 93.921875,44.158861 93.921875,42.7890625 C93.921875,41.4088473 94.2617154,40.3125041 94.9414062,39.5 C95.6210971,38.6874959 96.5338484,38.28125 97.6796875,38.28125 C98.7526095,38.28125 99.6015594,38.6341111 100.226562,39.3398438 C100.851566,40.0455764 101.164062,40.9765567 101.164062,42.1328125 L101.164062,42.953125 L95.265625,42.953125 C95.2916668,43.9583384 95.5455705,44.7213516 96.0273438,45.2421875 C96.509117,45.7630234 97.1874956,46.0234375 98.0625,46.0234375 C98.9843796,46.0234375 99.8958288,45.8307311 100.796875,45.4453125 L100.796875,46.6015625 C100.338539,46.7994802 99.90495,46.9414058 99.4960938,47.0273438 C99.0872375,47.1132817 98.5937529,47.15625 98.015625,47.15625 Z M97.6640625,39.3671875 C96.9765591,39.3671875 96.4283875,39.5911436 96.0195312,40.0390625 C95.610675,40.4869814 95.369792,41.1067669 95.296875,41.8984375 L99.7734375,41.8984375 C99.7734375,41.0807251 99.5911477,40.4544293 99.2265625,40.0195312 C98.8619773,39.5846332 98.3411492,39.3671875 97.6640625,39.3671875 Z M108.640625,47 L108.382812,45.78125 L108.320312,45.78125 C107.893227,46.317711 107.46745,46.6809886 107.042969,46.8710938 C106.618487,47.0611989 106.088545,47.15625 105.453125,47.15625 C104.604162,47.15625 103.938804,46.9375022 103.457031,46.5 C102.975258,46.0624978 102.734375,45.4401082 102.734375,44.6328125 C102.734375,42.9036372 104.117174,41.9973963 106.882812,41.9140625 L108.335938,41.8671875 L108.335938,41.3359375 C108.335938,40.6640591 108.191408,40.1679704 107.902344,39.8476562 C107.61328,39.5273421 107.151045,39.3671875 106.515625,39.3671875 C105.80208,39.3671875 104.994796,39.5859353 104.09375,40.0234375 L103.695312,39.03125 C104.11719,38.8020822 104.579425,38.6223965 105.082031,38.4921875 C105.584638,38.3619785 106.088539,38.296875 106.59375,38.296875 C107.614588,38.296875 108.371091,38.5234352 108.863281,38.9765625 C109.355471,39.4296898 109.601562,40.156245 109.601562,41.15625 L109.601562,47 L108.640625,47 Z M105.710938,46.0859375 C106.518233,46.0859375 107.152341,45.8645855 107.613281,45.421875 C108.074221,44.9791645 108.304688,44.359379 108.304688,43.5625 L108.304688,42.7890625 L107.007812,42.84375 C105.976557,42.8802085 105.233075,43.0403632 104.777344,43.3242188 C104.321612,43.6080743 104.09375,44.0494762 104.09375,44.6484375 C104.09375,45.1171898 104.235676,45.4739571 104.519531,45.71875 C104.803387,45.9635429 105.200518,46.0859375 105.710938,46.0859375 Z M113.554688,42.6171875 C113.778647,42.2994776 114.119789,41.8828151 114.578125,41.3671875 L117.34375,38.4375 L118.882812,38.4375 L115.414062,42.0859375 L119.125,47 L117.554688,47 L114.53125,42.953125 L113.554688,43.796875 L113.554688,47 L112.273438,47 L112.273438,34.84375 L113.554688,34.84375 L113.554688,41.2890625 C113.554688,41.5755223 113.533854,42.0182262 113.492188,42.6171875 L113.554688,42.6171875 Z M126.5,45.8515625 L126.429688,45.8515625 C125.830726,46.7213585 124.934902,47.15625 123.742188,47.15625 C122.62239,47.15625 121.751305,46.7734413 121.128906,46.0078125 C120.506507,45.2421837 120.195312,44.1536529 120.195312,42.7421875 C120.195312,41.3307221 120.507809,40.2343789 121.132812,39.453125 C121.757816,38.6718711 122.627599,38.28125 123.742188,38.28125 C124.903652,38.28125 125.794268,38.7031208 126.414062,39.546875 L126.515625,39.546875 L126.460938,38.9296875 L126.429688,38.328125 L126.429688,34.84375 L127.726562,34.84375 L127.726562,47 L126.671875,47 L126.5,45.8515625 Z M123.90625,46.0703125 C124.791671,46.0703125 125.433592,45.8294295 125.832031,45.3476562 C126.230471,44.865883 126.429688,44.088547 126.429688,43.015625 L126.429688,42.7421875 C126.429688,41.5286398 126.227867,40.662763 125.824219,40.1445312 C125.420571,39.6262995 124.776046,39.3671875 123.890625,39.3671875 C123.130205,39.3671875 122.548179,39.6627575 122.144531,40.2539062 C121.740883,40.845055 121.539062,41.6796821 121.539062,42.7578125 C121.539062,43.851568 121.739581,44.6770805 122.140625,45.234375 C122.541669,45.7916695 123.130204,46.0703125 123.90625,46.0703125 Z M137.867188,42.7109375 C137.867188,44.1067778 137.515629,45.1966107 136.8125,45.9804688 C136.109371,46.7643268 135.138027,47.15625 133.898438,47.15625 C133.132809,47.15625 132.453128,46.9765643 131.859375,46.6171875 C131.265622,46.2578107 130.807293,45.7421909 130.484375,45.0703125 C130.161457,44.3984341 130,43.6119837 130,42.7109375 C130,41.3150972 130.348955,40.2278685 131.046875,39.4492188 C131.744795,38.670569 132.713535,38.28125 133.953125,38.28125 C135.151048,38.28125 136.102861,38.6796835 136.808594,39.4765625 C137.514326,40.2734415 137.867188,41.3515557 137.867188,42.7109375 Z M131.34375,42.7109375 C131.34375,43.804693 131.562498,44.638018 132,45.2109375 C132.437502,45.783857 133.080725,46.0703125 133.929688,46.0703125 C134.77865,46.0703125 135.423175,45.7851591 135.863281,45.2148438 C136.303388,44.6445284 136.523438,43.8099013 136.523438,42.7109375 C136.523438,41.6223904 136.303388,40.7955757 135.863281,40.2304688 C135.423175,39.6653618 134.773442,39.3828125 133.914062,39.3828125 C133.0651,39.3828125 132.424481,39.6614555 131.992188,40.21875 C131.559894,40.7760445 131.34375,41.6067653 131.34375,42.7109375 Z M147.132812,47 L145.5625,41.9765625 C145.463541,41.6692693 145.278647,40.9713596 145.007812,39.8828125 L144.945312,39.8828125 C144.736978,40.7942754 144.554688,41.4973934 144.398438,41.9921875 L142.78125,47 L141.28125,47 L138.945312,38.4375 L140.304688,38.4375 C140.856774,40.5885524 141.277342,42.2265569 141.566406,43.3515625 C141.85547,44.4765681 142.020833,45.234373 142.0625,45.625 L142.125,45.625 C142.182292,45.3281235 142.274739,44.9440128 142.402344,44.4726562 C142.529949,44.0012997 142.640625,43.6276055 142.734375,43.3515625 L144.304688,38.4375 L145.710938,38.4375 L147.242188,43.3515625 C147.533856,44.2474003 147.73177,44.999997 147.835938,45.609375 L147.898438,45.609375 C147.919271,45.4218741 147.97526,45.1328145 148.066406,44.7421875 C148.157553,44.3515605 148.700516,42.2500191 149.695312,38.4375 L151.039062,38.4375 L148.671875,47 L147.132812,47 Z M158.445312,47 L158.445312,41.4609375 C158.445312,40.7630173 158.28646,40.2421892 157.96875,39.8984375 C157.65104,39.5546858 157.153649,39.3828125 156.476562,39.3828125 C155.580725,39.3828125 154.924481,39.6249976 154.507812,40.109375 C154.091144,40.5937524 153.882812,41.3932236 153.882812,42.5078125 L153.882812,47 L152.585938,47 L152.585938,38.4375 L153.640625,38.4375 L153.851562,39.609375 L153.914062,39.609375 C154.179689,39.1874979 154.552081,38.8606782 155.03125,38.6289062 C155.510419,38.3971343 156.044268,38.28125 156.632812,38.28125 C157.664068,38.28125 158.440102,38.5299454 158.960938,39.0273438 C159.481773,39.5247421 159.742188,40.320307 159.742188,41.4140625 L159.742188,47 L158.445312,47 Z" id="Claim-Breakdown" fill="#454856"></path>
                <path d="M263.445312,104 L262.589844,101.621094 L259.314453,101.621094 L258.476562,104 L257,104 L260.205078,95.3984375 L261.728516,95.3984375 L264.933594,104 L263.445312,104 Z M262.220703,100.414062 L261.417969,98.0820312 C261.359375,97.9257805 261.278321,97.6796892 261.174805,97.34375 C261.071289,97.0078108 261,96.7617195 260.960938,96.6054688 C260.855468,97.0859399 260.701173,97.6113253 260.498047,98.1816406 L259.724609,100.414062 L262.220703,100.414062 Z M268.53125,104.117188 C267.550776,104.117188 266.805667,103.831058 266.295898,103.258789 C265.78613,102.686521 265.53125,101.86524 265.53125,100.794922 C265.53125,99.7050727 265.797849,98.8671904 266.331055,98.28125 C266.86426,97.6953096 267.634761,97.4023438 268.642578,97.4023438 C269.326175,97.4023438 269.941404,97.5292956 270.488281,97.7832031 L270.072266,98.890625 C269.490231,98.6640614 269.009768,98.5507812 268.630859,98.5507812 C267.50976,98.5507812 266.949219,99.2949144 266.949219,100.783203 C266.949219,101.509769 267.088866,102.055662 267.368164,102.420898 C267.647462,102.786135 268.056638,102.96875 268.595703,102.96875 C269.208987,102.96875 269.78906,102.816408 270.335938,102.511719 L270.335938,103.712891 C270.089843,103.857423 269.82715,103.960937 269.547852,104.023438 C269.268553,104.085938 268.929689,104.117188 268.53125,104.117188 Z M274.472656,104.117188 C273.492183,104.117188 272.747073,103.831058 272.237305,103.258789 C271.727537,102.686521 271.472656,101.86524 271.472656,100.794922 C271.472656,99.7050727 271.739255,98.8671904 272.272461,98.28125 C272.805667,97.6953096 273.576167,97.4023438 274.583984,97.4023438 C275.267582,97.4023438 275.88281,97.5292956 276.429688,97.7832031 L276.013672,98.890625 C275.431638,98.6640614 274.951174,98.5507812 274.572266,98.5507812 C273.451166,98.5507812 272.890625,99.2949144 272.890625,100.783203 C272.890625,101.509769 273.030272,102.055662 273.30957,102.420898 C273.588869,102.786135 273.998044,102.96875 274.537109,102.96875 C275.150394,102.96875 275.730466,102.816408 276.277344,102.511719 L276.277344,103.712891 C276.031249,103.857423 275.768556,103.960937 275.489258,104.023438 C275.20996,104.085938 274.871096,104.117188 274.472656,104.117188 Z M279.177734,104 L277.800781,104 L277.800781,97.5195312 L279.177734,97.5195312 L279.177734,104 Z M277.71875,95.8027344 C277.71875,95.5566394 277.786132,95.3671882 277.920898,95.234375 C278.055665,95.1015618 278.248046,95.0351562 278.498047,95.0351562 C278.740236,95.0351562 278.92871,95.1015618 279.063477,95.234375 C279.198243,95.3671882 279.265625,95.5566394 279.265625,95.8027344 C279.265625,96.0371105 279.198243,96.221679 279.063477,96.3564453 C278.92871,96.4912116 278.740236,96.5585938 278.498047,96.5585938 C278.248046,96.5585938 278.055665,96.4912116 277.920898,96.3564453 C277.786132,96.221679 277.71875,96.0371105 277.71875,95.8027344 Z M283.332031,104.117188 C282.523433,104.117188 281.89258,103.824222 281.439453,103.238281 C280.986326,102.652341 280.759766,101.830083 280.759766,100.771484 C280.759766,99.7089791 280.989256,98.8818389 281.448242,98.2900391 C281.907229,97.6982392 282.542965,97.4023438 283.355469,97.4023438 C284.207036,97.4023438 284.855467,97.7167937 285.300781,98.3457031 L285.371094,98.3457031 C285.304687,97.8808571 285.271484,97.5136732 285.271484,97.2441406 L285.271484,94.8828125 L286.654297,94.8828125 L286.654297,104 L285.576172,104 L285.335938,103.150391 L285.271484,103.150391 C284.830076,103.794925 284.183598,104.117188 283.332031,104.117188 Z M283.701172,103.003906 C284.267581,103.003906 284.679686,102.844728 284.9375,102.526367 C285.195314,102.208006 285.328125,101.69141 285.335938,100.976562 L285.335938,100.783203 C285.335938,99.9667928 285.203126,99.3867205 284.9375,99.0429688 C284.671874,98.699217 284.255862,98.5273438 283.689453,98.5273438 C283.205076,98.5273438 282.832033,98.7236308 282.570312,99.1162109 C282.308592,99.508791 282.177734,100.068356 282.177734,100.794922 C282.177734,101.513675 282.304686,102.061522 282.558594,102.438477 C282.812501,102.815432 283.193357,103.003906 283.701172,103.003906 Z M291.453125,104.117188 C290.445307,104.117188 289.657229,103.823245 289.088867,103.235352 C288.520505,102.647458 288.236328,101.837896 288.236328,100.806641 C288.236328,99.7480416 288.499997,98.9160187 289.027344,98.3105469 C289.55469,97.7050751 290.279292,97.4023438 291.201172,97.4023438 C292.056645,97.4023438 292.732419,97.6621068 293.228516,98.1816406 C293.724612,98.7011745 293.972656,99.4160111 293.972656,100.326172 L293.972656,101.070312 L289.654297,101.070312 C289.673828,101.699222 289.843748,102.182615 290.164062,102.520508 C290.484377,102.8584 290.935544,103.027344 291.517578,103.027344 C291.900393,103.027344 292.256834,102.991211 292.586914,102.918945 C292.916994,102.846679 293.271482,102.726563 293.650391,102.558594 L293.650391,103.677734 C293.314451,103.837891 292.974611,103.951172 292.630859,104.017578 C292.287108,104.083985 291.894533,104.117188 291.453125,104.117188 Z M291.201172,98.4453125 C290.76367,98.4453125 290.413087,98.583983 290.149414,98.8613281 C289.885741,99.1386733 289.728516,99.5429661 289.677734,100.074219 L292.619141,100.074219 C292.611328,99.5390598 292.482423,99.1337904 292.232422,98.8583984 C291.982421,98.5830064 291.638674,98.4453125 291.201172,98.4453125 Z M301.238281,104 L299.855469,104 L299.855469,100.015625 C299.855469,99.5156225 299.754884,99.1425794 299.553711,98.8964844 C299.352538,98.6503894 299.033205,98.5273438 298.595703,98.5273438 C298.013669,98.5273438 297.587892,98.699217 297.318359,99.0429688 C297.048827,99.3867205 296.914062,99.9628866 296.914062,100.771484 L296.914062,104 L295.537109,104 L295.537109,97.5195312 L296.615234,97.5195312 L296.808594,98.3691406 L296.878906,98.3691406 C297.07422,98.0605453 297.351561,97.8222665 297.710938,97.6542969 C298.070314,97.4863273 298.468748,97.4023438 298.90625,97.4023438 C300.460945,97.4023438 301.238281,98.1933515 301.238281,99.7753906 L301.238281,104 Z M305.568359,103.003906 C305.904299,103.003906 306.240233,102.951172 306.576172,102.845703 L306.576172,103.882812 C306.423827,103.949219 306.22754,104.004883 305.987305,104.049805 C305.747069,104.094727 305.498048,104.117188 305.240234,104.117188 C303.93554,104.117188 303.283203,103.429694 303.283203,102.054688 L303.283203,98.5625 L302.398438,98.5625 L302.398438,97.953125 L303.347656,97.4492188 L303.816406,96.078125 L304.666016,96.078125 L304.666016,97.5195312 L306.511719,97.5195312 L306.511719,98.5625 L304.666016,98.5625 L304.666016,102.03125 C304.666016,102.363283 304.749023,102.608398 304.915039,102.766602 C305.081056,102.924805 305.298827,103.003906 305.568359,103.003906 Z M312.224609,102.154297 C312.224609,102.787113 311.994143,103.272459 311.533203,103.610352 C311.072263,103.948244 310.412114,104.117188 309.552734,104.117188 C308.689449,104.117188 307.996096,103.986329 307.472656,103.724609 L307.472656,102.535156 C308.234379,102.886721 308.943356,103.0625 309.599609,103.0625 C310.44727,103.0625 310.871094,102.806643 310.871094,102.294922 C310.871094,102.130859 310.824219,101.994141 310.730469,101.884766 C310.636718,101.77539 310.482423,101.66211 310.267578,101.544922 C310.052733,101.427734 309.753908,101.294923 309.371094,101.146484 C308.624996,100.85742 308.120119,100.568361 307.856445,100.279297 C307.592772,99.9902329 307.460938,99.6152367 307.460938,99.1542969 C307.460938,98.5996066 307.684568,98.1689468 308.131836,97.8623047 C308.579104,97.5556625 309.187496,97.4023438 309.957031,97.4023438 C310.718754,97.4023438 311.43945,97.5566391 312.119141,97.8652344 L311.673828,98.9023438 C310.974606,98.6132798 310.386721,98.46875 309.910156,98.46875 C309.18359,98.46875 308.820312,98.6757792 308.820312,99.0898438 C308.820312,99.2929698 308.915038,99.464843 309.104492,99.6054688 C309.293946,99.7460945 309.707028,99.9394519 310.34375,100.185547 C310.878909,100.392579 311.267577,100.58203 311.509766,100.753906 C311.751954,100.925782 311.93164,101.124022 312.048828,101.348633 C312.166016,101.573243 312.224609,101.841795 312.224609,102.154297 Z" id="Accidents" fill="#454856"></path>
                <rect id="Rectangle-3-Copy-5" stroke="#DCD4F7" x="0.5" y="0.5" width="349" height="322"></rect>
                <path d="M30.5,67.5 L318.515625,67.5" id="Line-4-Copy-2" stroke="#DCD4F7" stroke-linecap="square"></path>
                <g id="#ece8f5:10%-+-#d2b5f0:20%-+-#b07ce8:40%-+-#7732bb:10%-+-#44216a:20%-Mask" transform="translate(169.000000, 193.000000) rotate(234.000000) translate(-169.000000, -193.000000) translate(78.000000, 102.000000)">
                    <circle id="Mask" fill="#9753E1" cx="91" cy="91" r="91"></circle>
                    <path d="M65.142917,114.274835 C49.9527293,125.348219 31.2418859,131.882194 11.0049511,131.882194 L11.0049511,40.0097477 L65.142917,114.274835 Z" id="#ece8f5:10%" fill="#ECE8F5" fill-rule="nonzero" transform="translate(38.073934, 85.945971) rotate(126.000000) translate(-38.073934, -85.945971) "></path>
                    <path d="M19.5240278,79.6877397 L19.5240278,-12.285162 C19.5383824,-12.2942677 48.7271416,-2.87101478 107.090305,15.9845967 C95.1540097,52.9496363 60.4615281,79.6877397 19.5240278,79.6877397 Z" id="#d2b5f0:20%" fill="#D2B5F0" fill-rule="nonzero" transform="translate(63.307167, 33.701286) rotate(198.000000) translate(-63.307167, -33.701286) "></path>
                    <path d="M128.318131,128.318131 C128.318131,179.128328 87.1283285,220.318131 36.3181315,220.318131 L36.3181315,128.318131 L90.1203207,53.6818685 C113.259333,70.3910621 128.318131,97.5960113 128.318131,128.318131 Z" id="#b07ce8:40%" fill="#B07CE8" fill-rule="nonzero" transform="translate(82.318131, 137.000000) rotate(90.000000) translate(-82.318131, -137.000000) "></path>
                    <path d="M138.294415,69.6571853 C123.104227,80.7305698 104.393384,87.2645441 84.1564491,87.2645441 L84.1564491,-4.60790182 L138.294415,69.6571853 Z" id="#7732bb:10%" fill="#7732BB" fill-rule="nonzero" transform="translate(111.225432, 41.328321) rotate(233.000000) translate(-111.225432, -41.328321) "></path>
                    <path d="M197.104194,63.9157851 C185.167899,100.880825 150.475417,127.618928 109.537917,127.618928 L109.537917,35.6460264 C109.552271,35.6369207 138.741031,45.0601736 197.104194,63.9157851 Z" id="#44216a:20%" fill="#44216A" fill-rule="nonzero" transform="translate(153.321056, 81.632474) rotate(305.000000) translate(-153.321056, -81.632474) "></path>
                </g>
                <polyline id="Path-2" stroke="#454856" stroke-width="2" points="245 128 258 115 291 115"></polyline>
            </g>
        </g>
    </g>
</svg>